<svg width="184" height="70" viewBox="0 0 184 70" fill="none" xmlns="http://www.w3.org/2000/svg">
<path fill-rule="evenodd" clip-rule="evenodd" d="M119.264 14.6939L184 39.4286H119.264L137.689 26.6939L131.34 24.2449L109.18 39.4286H100.59L125.737 22.1633L119.264 19.7143V14.6939ZM143.291 28.898L134.701 34.7755H158.604L143.291 28.898Z" fill="white"/>
<path fill-rule="evenodd" clip-rule="evenodd" d="M64.7361 14.6939L0 39.4286H64.7361L46.3112 26.6939L52.6604 24.2449L74.82 39.4286H83.41L58.2625 22.1633L64.7361 19.7143V14.6939ZM40.7091 28.898L49.2991 34.7755H25.3965L40.7091 28.898Z" fill="white"/>
<path d="M90.5061 24.2449L98.8471 18.4898L82.0406 6.85714L73.6996 12.6122L90.5061 24.2449Z" fill="white"/>
<path d="M73.2016 17.5102V26.3265L92 39.3061L110.798 26.3265V12.7347L92.249 0L85.7754 4.40816L103.329 16.5306V22.6679L92 30.4898L73.2016 17.5102Z" fill="white"/>
<path d="M0 46.8894H16.1739V68.6295H10.9314V51.7809H5.24259V68.6295H0V46.8894Z" fill="white"/>
<path d="M20.1113 68.6295L24.9077 46.8894H33.664L38.4604 68.6295H33.2178L29.4253 50.6124H28.8676L24.9914 68.6295H20.1113ZM23.876 62.6238V57.7866H34.6679V62.6238H23.876Z" fill="white"/>
<path d="M42.3032 68.6295V46.8894H51.0595C52.6583 46.8894 54.0433 47.1793 55.2145 47.759C56.3857 48.3206 57.2967 49.1177 57.9474 50.1504C58.598 51.1831 58.9234 52.415 58.9234 53.8462C58.9234 55.205 58.598 56.3916 57.9474 57.4061C57.2967 58.4026 56.3857 59.1725 55.2145 59.716C54.0433 60.2595 52.6583 60.5313 51.0595 60.5313H47.5458V68.6295H42.3032ZM47.5458 55.9387H51.0595C51.8961 55.9387 52.5374 55.7575 52.9836 55.3952C53.4484 55.0329 53.6808 54.5075 53.6808 53.819C53.6808 53.1487 53.4484 52.6324 52.9836 52.2701C52.5374 51.8896 51.8961 51.6994 51.0595 51.6994H47.5458V55.9387Z" fill="white"/>
<path d="M60.2673 68.6295L65.0638 46.8894H73.82L78.6164 68.6295H73.3738L69.5813 50.6124H69.0236L65.1474 68.6295H60.2673ZM64.032 62.6238V57.7866H74.8239V62.6238H64.032Z" fill="white"/>
<path d="M125.707 68.6295L130.504 46.8894H139.26L144.056 68.6295H138.814L135.021 50.6124H134.463L130.587 68.6295H125.707ZM129.472 62.6238V57.7866H140.264V62.6238H129.472Z" fill="white"/>
<path d="M147.91 46.8894H153.097V68.6295H147.91V46.8894ZM157.865 68.6295L152.204 58.1399L158.562 46.8894H164.084L157.893 57.8953L163.693 68.6295H157.865Z" fill="white"/>
<path d="M175.411 69.173C172.567 69.173 170.401 68.2037 168.914 66.2652C167.426 64.3267 166.683 61.4915 166.683 57.7594C166.683 54.0274 167.445 51.1921 168.969 49.2536C170.512 47.3151 172.734 46.3459 175.634 46.3459C177.307 46.3459 178.748 46.681 179.957 47.3514C181.165 48.0217 182.113 48.9909 182.801 50.2591C183.489 51.5273 183.888 53.0581 184 54.8517H179.204C178.943 53.5473 178.516 52.578 177.921 51.944C177.345 51.3099 176.582 50.9928 175.634 50.9928C174.407 50.9928 173.478 51.5544 172.846 52.6777C172.232 53.7828 171.925 55.4767 171.925 57.7594C171.925 60.0421 172.213 61.7451 172.79 62.8683C173.366 63.9735 174.24 64.526 175.411 64.526C176.285 64.526 177.001 64.2361 177.558 63.6564C178.116 63.0586 178.534 62.1527 178.813 60.9389H183.61C183.498 62.6781 183.089 64.1637 182.383 65.3956C181.695 66.6094 180.756 67.5425 179.566 68.1947C178.395 68.8469 177.01 69.173 175.411 69.173Z" fill="white"/>
<path d="M95.0254 68.6295V51.6722H90.3127V46.8894H100.268V68.6295H95.0254ZM82.6161 68.9556V64.1999H83.1738C83.5828 64.1999 83.9268 64.1365 84.2056 64.0097C84.4845 63.8648 84.7076 63.6021 84.8749 63.2216C85.0608 62.823 85.2002 62.2524 85.2932 61.5096C85.3861 60.7668 85.4605 59.7885 85.5163 58.5747L85.9067 46.8894H90.8983L90.4521 60.2052C90.3963 61.89 90.2476 63.276 90.0059 64.363C89.7642 65.45 89.4389 66.3105 89.0299 66.9446C88.6209 67.5606 88.1376 68.0135 87.5798 68.3034C87.0407 68.5751 86.4365 68.7472 85.7672 68.8197C85.098 68.9103 84.3915 68.9556 83.6479 68.9556H82.6161Z" fill="white"/>
<path d="M116.811 68.6295V51.6722H112.099V46.8894H122.054V68.6295H116.811ZM104.402 68.9556V64.1999H104.96C105.369 64.1999 105.713 64.1365 105.992 64.0097C106.271 63.8648 106.494 63.6021 106.661 63.2216C106.847 62.823 106.986 62.2524 107.079 61.5096C107.172 60.7668 107.247 59.7885 107.302 58.5747L107.693 46.8894H112.684L112.238 60.2052C112.182 61.89 112.034 63.276 111.792 64.363C111.55 65.45 111.225 66.3105 110.816 66.9446C110.407 67.5606 109.924 68.0135 109.366 68.3034C108.827 68.5751 108.223 68.7472 107.553 68.8197C106.884 68.9103 106.178 68.9556 105.434 68.9556H104.402Z" fill="white"/>
</svg>
